{
  "accessors": [
    {
      "bufferView": 2,
      "componentType": 5126,
      "count": 63842,
      "max": [
        0.07218296825885773,
        0.06521423161029816,
        0.1559542715549469
      ],
      "min": [
        -0.07354497909545898,
        -0.08578119426965714,
        0.02485720068216324
      ],
      "type": "VEC3"
    },
    {
      "bufferView": 2,
      "byteOffset": 766104,
      "componentType": 5126,
      "count": 63842,
      "max": [
        0.999999463558197,
        0.9999961256980896,
        0.9999943971633911
      ],
      "min": [
        -0.9999997019767761,
        -0.9999999403953552,
        -0.9999933838844299
      ],
      "type": "VEC3"
    },
    {
      "bufferView": 1,
      "componentType": 5126,
      "count": 63842,
      "max": [
        1.3061721324920654,
        0.9253040552139282
      ],
      "min": [
        -0.306172251701355,
        -0.3161590099334717
      ],
      "type": "VEC2"
    },
    {
      "bufferView": 1,
      "byteOffset": 510736,
      "componentType": 5126,
      "count": 63842,
      "max": [
        7.218297004699707,
        6.52142333984375
      ],
      "min": [
        -7.354498386383057,
        -8.578119277954102
      ],
      "type": "VEC2"
    },
    {
      "bufferView": 0,
      "componentType": 5125,
      "count": 273330,
      "type": "SCALAR"
    },
    {
      "bufferView": 2,
      "byteOffset": 1532208,
      "componentType": 5126,
      "count": 9210,
      "max": [
        0.0601557232439518,
        0.05565352737903595,
        0.13272710144519806
      ],
      "min": [
        -0.06340057402849197,
        -0.08755357563495636,
        0.002631409326568246
      ],
      "type": "VEC3"
    },
    {
      "bufferView": 2,
      "byteOffset": 1642728,
      "componentType": 5126,
      "count": 9210,
      "max": [
        1.0,
        1.0,
        0.9996160268783569
      ],
      "min": [
        -1.0,
        -1.0,
        -0.9999992251396179
      ],
      "type": "VEC3"
    },
    {
      "bufferView": 1,
      "byteOffset": 1021472,
      "componentType": 5126,
      "count": 9210,
      "max": [
        1.3290560245513916,
        0.7956268787384033
      ],
      "min": [
        -0.3290560245513916,
        -0.30988872051239014
      ],
      "type": "VEC2"
    },
    {
      "bufferView": 1,
      "byteOffset": 1095152,
      "componentType": 5126,
      "count": 9210,
      "max": [
        6.015572547912598,
        5.565352916717529
      ],
      "min": [
        -6.340057373046875,
        -8.75535774230957
      ],
      "type": "VEC2"
    },
    {
      "bufferView": 0,
      "byteOffset": 1093320,
      "componentType": 5125,
      "count": 41664,
      "type": "SCALAR"
    },
    {
      "bufferView": 2,
      "byteOffset": 1753248,
      "componentType": 5126,
      "count": 1738,
      "max": [
        0.06036626175045967,
        0.056011419743299484,
        0.0027076900005340576
      ],
      "min": [
        -0.06361107528209686,
        -0.06251458078622818,
        -0.00010186041617998853
      ],
      "type": "VEC3"
    },
    {
      "bufferView": 2,
      "byteOffset": 1774104,
      "componentType": 5126,
      "count": 1738,
      "max": [
        1.0,
        0.9998940229415894,
        0.9757535457611084
      ],
      "min": [
        -1.0,
        -0.999976396560669,
        -0.9947836995124817
      ],
      "type": "VEC3"
    },
    {
      "bufferView": 1,
      "byteOffset": 1168832,
      "componentType": 5126,
      "count": 1738,
      "max": [
        1.181027889251709,
        0.4535027742385864
      ],
      "min": [
        -0.18102842569351196,
        -0.19225704669952393
      ],
      "type": "VEC2"
    },
    {
      "bufferView": 1,
      "byteOffset": 1182736,
      "componentType": 5126,
      "count": 1738,
      "max": [
        6.03662633895874,
        5.601141929626465
      ],
      "min": [
        -6.361107349395752,
        -6.251458168029785
      ],
      "type": "VEC2"
    },
    {
      "bufferView": 0,
      "byteOffset": 1259976,
      "componentType": 5125,
      "count": 6630,
      "type": "SCALAR"
    },
    {
      "bufferView": 2,
      "byteOffset": 1794960,
      "componentType": 5126,
      "count": 11116,
      "max": [
        0.05919196829199791,
        0.06465775519609451,
        0.155511274933815
      ],
      "min": [
        -0.0622914619743824,
        -0.08686375617980957,
        0.02391061559319496
      ],
      "type": "VEC3"
    },
    {
      "bufferView": 2,
      "byteOffset": 1928352,
      "componentType": 5126,
      "count": 11116,
      "max": [
        0.9999999403953552,
        0.998680055141449,
        0.9988889098167419
      ],
      "min": [
        -0.9999999403953552,
        -0.9984665513038635,
        -0.9997994899749756
      ],
      "type": "VEC3"
    },
    {
      "bufferView": 1,
      "byteOffset": 1196640,
      "componentType": 5126,
      "count": 11116,
      "max": [
        1.5593500137329102,
        1.1290807723999023
      ],
      "min": [
        -0.5613930225372314,
        -0.23452425003051758
      ],
      "type": "VEC2"
    },
    {
      "bufferView": 1,
      "byteOffset": 1285568,
      "componentType": 5126,
      "count": 11116,
      "max": [
        5.870525360107422,
        0.5312134027481079
      ],
      "min": [
        -6.180477142333984,
        -8.686375617980957
      ],
      "type": "VEC2"
    },
    {
      "bufferView": 0,
      "byteOffset": 1286496,
      "componentType": 5125,
      "count": 57300,
      "type": "SCALAR"
    },
    {
      "bufferView": 2,
      "byteOffset": 2061744,
      "componentType": 5126,
      "count": 2521,
      "max": [
        0.05518049746751785,
        0.20887643098831177,
        0.06519073992967606
      ],
      "min": [
        -0.05828671157360077,
        0.12385893613100052,
        0.04380523040890694
      ],
      "type": "VEC3"
    },
    {
      "bufferView": 2,
      "byteOffset": 2091996,
      "componentType": 5126,
      "count": 2521,
      "max": [
        0.9968771934509277,
        0.9225841760635376,
        1.0
      ],
      "min": [
        -0.9968771934509277,
        -0.9061440825462341,
        -1.0
      ],
      "type": "VEC3"
    },
    {
      "bufferView": 1,
      "byteOffset": 1374496,
      "componentType": 5126,
      "count": 2521,
      "max": [
        5.518049716949463,
        20.887643814086914
      ],
      "min": [
        -5.828671455383301,
        12.385893821716309
      ],
      "type": "VEC2"
    },
    {
      "bufferView": 1,
      "byteOffset": 1394664,
      "componentType": 5126,
      "count": 2521,
      "max": [
        1.2810676097869873,
        1.2882843017578125
      ],
      "min": [
        -0.2810680866241455,
        0.3160284161567688
      ],
      "type": "VEC2"
    },
    {
      "bufferView": 0,
      "byteOffset": 1515696,
      "componentType": 5125,
      "count": 13008,
      "type": "SCALAR"
    },
    {
      "bufferView": 2,
      "byteOffset": 2122248,
      "componentType": 5126,
      "count": 7495,
      "max": [
        0.04182944446802139,
        0.2099638134241104,
        0.044211845844984055
      ],
      "min": [
        -0.04442332312464714,
        0.12363170087337494,
        0.002039458602666855
      ],
      "type": "VEC3"
    },
    {
      "bufferView": 2,
      "byteOffset": 2212188,
      "componentType": 5126,
      "count": 7495,
      "max": [
        0.999999463558197,
        0.999999463558197,
        0.9996575117111206
      ],
      "min": [
        -0.999999463558197,
        -0.999999463558197,
        -1.0
      ],
      "type": "VEC3"
    },
    {
      "bufferView": 1,
      "byteOffset": 1414832,
      "componentType": 5126,
      "count": 7495,
      "max": [
        1.3266642093658447,
        1.327975869178772
      ],
      "min": [
        -0.3266642093658447,
        0.08585578203201294
      ],
      "type": "VEC2"
    },
    {
      "bufferView": 1,
      "byteOffset": 1474792,
      "componentType": 5126,
      "count": 7495,
      "max": [
        4.807328701019287,
        21.616809844970703
      ],
      "min": [
        -5.066755294799805,
        11.742725372314453
      ],
      "type": "VEC2"
    },
    {
      "bufferView": 0,
      "byteOffset": 1567728,
      "componentType": 5125,
      "count": 34044,
      "type": "SCALAR"
    },
    {
      "bufferView": 2,
      "byteOffset": 2302128,
      "componentType": 5126,
      "count": 1392,
      "max": [
        0.04207123816013336,
        0.21020562946796417,
        0.002098573837429285
      ],
      "min": [
        -0.0446651354432106,
        0.12338986247777939,
        -7.894635200500488e-05
      ],
      "type": "VEC3"
    },
    {
      "bufferView": 2,
      "byteOffset": 2318832,
      "componentType": 5126,
      "count": 1392,
      "max": [
        0.9999904632568359,
        0.9999906420707703,
        0.9757535457611084
      ],
      "min": [
        -0.9999904036521912,
        -0.9999906420707703,
        -0.9947843551635742
      ],
      "type": "VEC3"
    },
    {
      "bufferView": 1,
      "byteOffset": 1534752,
      "componentType": 5126,
      "count": 1392,
      "max": [
        1.3203250169754028,
        1.3290276527404785
      ],
      "min": [
        -0.32032454013824463,
        0.07452559471130371
      ],
      "type": "VEC2"
    },
    {
      "bufferView": 1,
      "byteOffset": 1545888,
      "componentType": 5126,
      "count": 1392,
      "max": [
        4.832509517669678,
        21.641990661621094
      ],
      "min": [
        -5.0919365882873535,
        11.717543601989746
      ],
      "type": "VEC2"
    },
    {
      "bufferView": 0,
      "byteOffset": 1703904,
      "componentType": 5125,
      "count": 5304,
      "type": "SCALAR"
    },
    {
      "bufferView": 2,
      "byteOffset": 2335536,
      "componentType": 5126,
      "count": 16764,
      "max": [
        0.05392204597592354,
        0.21083179116249084,
        0.07358815521001816
      ],
      "min": [
        -0.05706169083714485,
        0.12348020076751709,
        0.04478483647108078
      ],
      "type": "VEC3"
    },
    {
      "bufferView": 2,
      "byteOffset": 2536704,
      "componentType": 5126,
      "count": 16764,
      "max": [
        0.9999348521232605,
        0.9999967813491821,
        0.9999991059303284
      ],
      "min": [
        -0.9999867677688599,
        -0.999997615814209,
        -0.9999452233314514
      ],
      "type": "VEC3"
    },
    {
      "bufferView": 1,
      "byteOffset": 1557024,
      "componentType": 5126,
      "count": 16764,
      "max": [
        1.2778154611587524,
        1.297887921333313
      ],
      "min": [
        -0.277815580368042,
        0.3229008913040161
      ],
      "type": "VEC2"
    },
    {
      "bufferView": 1,
      "byteOffset": 1691136,
      "componentType": 5126,
      "count": 16764,
      "max": [
        5.392204761505127,
        21.083179473876953
      ],
      "min": [
        -5.706169128417969,
        12.348020553588867
      ],
      "type": "VEC2"
    },
    {
      "bufferView": 0,
      "byteOffset": 1725120,
      "componentType": 5125,
      "count": 71112,
      "type": "SCALAR"
    }
  ],
  "asset": {
    "extras": {
      "author": "Braingapps (https://sketchfab.com/braingapps)",
      "license": "SKETCHFAB Editorial (https://sketchfab.com/licenses)",
      "source": "https://sketchfab.com/3d-models/charles-eames-lounge-chair-234e36d3893c4fd7b0224e8704cb0461",
      "title": "Charles Eames Lounge Chair"
    },
    "generator": "Sketchfab-12.68.0",
    "version": "2.0"
  },
  "bufferViews": [
    {
      "buffer": 0,
      "byteLength": 2009568,
      "name": "floatBufferViews",
      "target": 34963
    },
    {
      "buffer": 0,
      "byteLength": 1825248,
      "byteOffset": 2009568,
      "byteStride": 8,
      "name": "floatBufferViews",
      "target": 34962
    },
    {
      "buffer": 0,
      "byteLength": 2737872,
      "byteOffset": 3834816,
      "byteStride": 12,
      "name": "floatBufferViews",
      "target": 34962
    }
  ],
  "buffers": [
    {
      "byteLength": 6572688,
      "uri": "scene.bin"
    }
  ],
  "images": [
    {
      "uri": "textures/archmodels59_leather_baseColor.jpeg"
    },
    {
      "uri": "textures/Material_E26Eee_baseColor.jpeg"
    }
  ],
  "materials": [
    {
      "doubleSided": true,
      "name": "archmodels59_leather",
      "pbrMetallicRoughness": {
        "baseColorTexture": {
          "index": 0
        },
        "metallicFactor": 0.0,
        "roughnessFactor": 0.20235576309213288
      }
    },
    {
      "doubleSided": true,
      "emissiveFactor": [
        0.1,
        0.1,
        0.1
      ],
      "name": "Material_2097629959",
      "pbrMetallicRoughness": {
        "baseColorFactor": [
          0.6644489235053415,
          0.6644489235053415,
          0.6644489235053415,
          1.0
        ],
        "roughnessFactor": 0.2
      }
    },
    {
      "doubleSided": true,
      "name": "Material_20d97629959",
      "pbrMetallicRoughness": {
        "baseColorFactor": [
          0.42732217013540547,
          0.42732217013540547,
          0.42732217013540547,
          1.0
        ],
        "roughnessFactor": 0.2
      }
    },
    {
      "doubleSided": true,
      "name": "Material_E26Eee",
      "pbrMetallicRoughness": {
        "baseColorTexture": {
          "index": 1
        },
        "metallicFactor": 0.0,
        "roughnessFactor": 0.37868078482875195
      }
    }
  ],
  "meshes": [
    {
      "name": "objobjArmchair_09_Mesh_06_archmodels59_leather_0",
      "primitives": [
        {
          "attributes": {
            "NORMAL": 1,
            "POSITION": 0,
            "TEXCOORD_0": 2,
            "TEXCOORD_1": 3
          },
          "indices": 4,
          "material": 0,
          "mode": 4
        }
      ]
    },
    {
      "name": "objobjArmchair_09_Mesh_06_Material #2097629959_0",
      "primitives": [
        {
          "attributes": {
            "NORMAL": 6,
            "POSITION": 5,
            "TEXCOORD_0": 7,
            "TEXCOORD_1": 8
          },
          "indices": 9,
          "material": 1,
          "mode": 4
        }
      ]
    },
    {
      "name": "objobjArmchair_09_Mesh_06_Material #20d97629959_0",
      "primitives": [
        {
          "attributes": {
            "NORMAL": 11,
            "POSITION": 10,
            "TEXCOORD_0": 12,
            "TEXCOORD_1": 13
          },
          "indices": 14,
          "material": 2,
          "mode": 4
        }
      ]
    },
    {
      "name": "objobjArmchair_09_Mesh_06_Material #E26Eee_0",
      "primitives": [
        {
          "attributes": {
            "NORMAL": 16,
            "POSITION": 15,
            "TEXCOORD_0": 17,
            "TEXCOORD_1": 18
          },
          "indices": 19,
          "material": 3,
          "mode": 4
        }
      ]
    },
    {
      "name": "Object98_Material #E26Eee_0",
      "primitives": [
        {
          "attributes": {
            "NORMAL": 21,
            "POSITION": 20,
            "TEXCOORD_0": 22,
            "TEXCOORD_1": 23
          },
          "indices": 24,
          "material": 3,
          "mode": 4
        }
      ]
    },
    {
      "name": "Object98_Material #2097629959_0",
      "primitives": [
        {
          "attributes": {
            "NORMAL": 26,
            "POSITION": 25,
            "TEXCOORD_0": 27,
            "TEXCOORD_1": 28
          },
          "indices": 29,
          "material": 1,
          "mode": 4
        }
      ]
    },
    {
      "name": "Object98_Material #20d97629959_0",
      "primitives": [
        {
          "attributes": {
            "NORMAL": 31,
            "POSITION": 30,
            "TEXCOORD_0": 32,
            "TEXCOORD_1": 33
          },
          "indices": 34,
          "material": 2,
          "mode": 4
        }
      ]
    },
    {
      "name": "Object98_archmodels59_leather_0",
      "primitives": [
        {
          "attributes": {
            "NORMAL": 36,
            "POSITION": 35,
            "TEXCOORD_0": 37,
            "TEXCOORD_1": 38
          },
          "indices": 39,
          "material": 0,
          "mode": 4
        }
      ]
    }
  ],
  "nodes": [
    {
      "children": [
        1
      ],
      "matrix": [
        1.0,
        0.0,
        0.0,
        0.0,
        0.0,
        2.220446049250313e-16,
        -1.0,
        0.0,
        0.0,
        1.0,
        2.220446049250313e-16,
        0.0,
        0.0,
        0.0,
        0.0,
        1.0
      ],
      "name": "Sketchfab_model"
    },
    {
      "children": [
        2
      ],
      "matrix": [
        1.0,
        0.0,
        0.0,
        0.0,
        0.0,
        0.0,
        1.0,
        0.0,
        0.0,
        -1.0,
        0.0,
        0.0,
        0.0,
        0.0,
        0.0,
        1.0
      ],
      "name": "6d5f1af8fa79493895c7a80196a7c19d.fbx"
    },
    {
      "children": [
        3
      ],
      "name": "RootNode"
    },
    {
      "children": [
        4
      ],
      "matrix": [
        -0.048937312616634546,
        -7.448306929924253e-16,
        1.9161861883547089,
        0.0,
        1.9161861883547089,
        -8.512350777056289e-16,
        0.048937312616634546,
        0.0,
        9.576396410898448e-16,
        1.9168113470077515,
        8.512352365243065e-16,
        0.0,
        84.04254150390625,
        3.085991859436035,
        63.83645248413086,
        1.0
      ],
      "name": "Mobiliario habitacion TODO"
    },
    {
      "children": [
        5
      ],
      "matrix": [
        -0.01331936283418536,
        0.5215296724913933,
        8.762272977364222e-33,
        0.0,
        -0.5215296724913933,
        -0.01331936283418536,
        -2.4651903191793434e-32,
        0.0,
        -2.442016338383269e-32,
        -9.388798401410911e-33,
        0.5216997861862183,
        0.0,
        -1.0925273895263672,
        -0.9084892272949219,
        0.21502935886383057,
        1.0
      ],
      "name": "MBILIARIO hab"
    },
    {
      "children": [
        6,
        11
      ],
      "matrix": [
        1.0,
        -2.6469779601696886e-23,
        0.0,
        0.0,
        2.6469779601696886e-23,
        1.0,
        -4.930380657631324e-32,
        0.0,
        1.305060893599705e-54,
        4.930380657631324e-32,
        1.0,
        0.0,
        -3.111114501953125,
        -1.8133049011230469,
        -0.025376558303833008,
        1.0
      ],
      "name": "sllon"
    },
    {
      "children": [
        7,
        8,
        9,
        10
      ],
      "matrix": [
        3.7070996982176,
        -3.319175739989149,
        0.028157020155450498,
        0.0,
        3.319295145786373,
        3.7069614357970435,
        -0.0320192428722369,
        0.0,
        0.0003819365333206372,
        0.042636875187455195,
        4.9757894894504595,
        0.0,
        -0.1569671630859375,
        -0.14861297607421875,
        -0.3849363327026367,
        1.0
      ],
      "name": "objobjArmchair_09_Mesh_06"
    },
    {
      "mesh": 0,
      "name": "objobjArmchair_09_Mesh_06_archmodels59_leather_0"
    },
    {
      "mesh": 1,
      "name": "objobjArmchair_09_Mesh_06_Material #2097629959_0"
    },
    {
      "mesh": 2,
      "name": "objobjArmchair_09_Mesh_06_Material #20d97629959_0"
    },
    {
      "mesh": 3,
      "name": "objobjArmchair_09_Mesh_06_Material #E26Eee_0"
    },
    {
      "children": [
        12,
        13,
        14,
        15
      ],
      "matrix": [
        3.409345724553111,
        -3.624455794271665,
        1.9721523195803193e-31,
        0.0,
        3.624455794271665,
        3.409345724553111,
        -1.9721523195803197e-31,
        0.0,
        8.525561720835853e-33,
        2.7877406696631783e-31,
        4.975973129272461,
        0.0,
        -0.2775421142578125,
        -0.28293609619140625,
        -0.38505029678344727,
        1.0
      ],
      "name": "Object98"
    },
    {
      "mesh": 4,
      "name": "Object98_Material #E26Eee_0"
    },
    {
      "mesh": 5,
      "name": "Object98_Material #2097629959_0"
    },
    {
      "mesh": 6,
      "name": "Object98_Material #20d97629959_0"
    },
    {
      "mesh": 7,
      "name": "Object98_archmodels59_leather_0"
    }
  ],
  "samplers": [
    {
      "magFilter": 9729,
      "minFilter": 9987,
      "wrapS": 10497,
      "wrapT": 10497
    }
  ],
  "scene": 0,
  "scenes": [
    {
      "name": "Sketchfab_Scene",
      "nodes": [
        0
      ]
    }
  ],
  "textures": [
    {
      "sampler": 0,
      "source": 0
    },
    {
      "sampler": 0,
      "source": 1
    }
  ]
}
